# xmcd
#
# Track frame offsets:
#	183
#	11920
#	21763
#	36118
#	46838
#	59293
#	69518
#	80383
#	92890
#	107480
#	124660
#	137140
#	151453
#	162118
#	173573
#	185858
#	196598
#	207180
#	218508
#	229358
#	238675
#	248200
#	260125
#	270465
#	281413
#
# Disc length: 3865
#
# Revision: 1
# Processed by: cddbd v1.5.1PL0 Copyright (c) Steve Scherf et al.
# Submitted via: CdAid 2001.05.15.01
# Normalized: r0:DSETVAR1
#
DISCID=5c0f1719
DTITLE=Various Artist - Country Giants vol. 2
DYEAR=1900
DGENRE=
TTITLE0=Willie nelson - Is there somthing on your mind
TTITLE1=Buck owens - rythm 'n' booze
TTITLE2=Gorge jones - Cold cold heart
TTITLE3=Patsy cline - Stop, look and listen
TTITLE4=Faron young - Four in the morning
TTITLE5=Faron young - Hello walls
TTITLE6=Donna fargo - Wishful thinking
TTITLE7=Kenny rogers - Reuben james
TTITLE8=Ann murry - Both sides now
TTITLE9=Johnny paycheck - Billy jack washburn
TTITLE10=Willie nekson - The shelter of my arms
TTITLE11=B.J. Thomas - I'd rather be lonely
TTITLE12=Patsy cline - Then you'll know
TTITLE13=Dolly parton - Letter to heaven
TTITLE14=Stonewall jackson - Ol' blue
TTITLE15=Waylon jennings - Sally was a good old girl
TTITLE16=Patsy cline - honky tonk merry go round
TTITLE17=B.J. Thomas - How many tears will it take
TTITLE18=Faron young - Wine me up
TTITLE19=George jones - The race is on
TTITLE20=Willie nelson - Bulding heartaches
TTITLE21=Billy jo spears - Ease the want in me
TTITLE22=Dave dudley - Sad and lonely days
TTITLE23=George jones - A good year for the roses
TTITLE24=Conway twitty - Blue is the way i feel
EXTD=
EXTT0=
EXTT1=
EXTT2=
EXTT3=
EXTT4=
EXTT5=
EXTT6=
EXTT7=
EXTT8=
EXTT9=
EXTT10=
EXTT11=
EXTT12=
EXTT13=
EXTT14=
EXTT15=
EXTT16=
EXTT17=
EXTT18=
EXTT19=
EXTT20=
EXTT21=
EXTT22=
EXTT23=
EXTT24=
PLAYORDER=
